<svg id="Warstwa_1" data-name="Warstwa 1" xmlns="http://www.w3.org/2000/svg" viewBox="0 0 352 69"><defs><style>.cls-1{fill:#391b54;}</style></defs><title>waves_v</title><path id="gentle-wave" d="M-112,20C-82,20-54,2-24,2S34,20,64,20,122,2,152,2s58,18,88,18V64H-112Z" transform="translate(112 -2)"/><path d="M-112,23C-82,23-54,5-24,5S34,23,64,23,122,5,152,5s58,18,88,18V67H-112Z" transform="translate(112 -2)"/><path d="M-112,25C-82,25-54,7-24,7S34,25,64,25,122,7,152,7s58,18,88,18V69H-112Z" transform="translate(112 -2)"/><path class="cls-1" d="M-112,27C-82,27-54,9-24,9S34,27,64,27,122,9,152,9s58,18,88,18V71H-112Z" transform="translate(112 -2)"/></svg>