<svg width="86" height="75" viewBox="0 0 86 75" fill="none" xmlns="http://www.w3.org/2000/svg">
<path d="M29.5955 47.766L28.8195 44.5507C28.753 43.9952 28.7188 43.4301 28.7188 42.8571C28.7188 35.0154 35.1281 28.625 43 28.625C50.8719 28.625 57.2812 35.0154 57.2812 42.8571C57.2812 50.6989 50.8719 57.0893 43 57.0893C36.8587 57.0893 31.6075 53.1998 29.5955 47.766ZM22.3438 42.8571C22.3438 46.8713 23.5008 50.6208 25.5 53.7904V54.1449H25.7287C29.4224 59.7437 35.7829 63.4464 43 63.4464C54.3941 63.4464 63.6562 54.2174 63.6562 42.8571C63.6562 31.4968 54.3941 22.2679 43 22.2679C31.6059 22.2679 22.3438 31.4968 22.3438 42.8571ZM22.8438 11.2143H23.1902L23.3119 10.8899L25.3778 5.38227C26.4799 2.44787 29.2993 0.5 32.4516 0.5H53.5316C56.6839 0.5 59.5033 2.44787 60.6054 5.38227L60.6058 5.38333L62.6886 10.8911L62.8108 11.2143H63.1562H77.9375C82.1141 11.2143 85.5 14.5913 85.5 18.75V66.9643C85.5 71.123 82.1141 74.5 77.9375 74.5H8.0625C3.8859 74.5 0.5 71.123 0.5 66.9643V18.75C0.5 14.5913 3.8859 11.2143 8.0625 11.2143H22.8438Z" fill="#381557" stroke="black"/>
</svg>
