<svg width="123" height="121" viewBox="0 0 123 121" fill="none" xmlns="http://www.w3.org/2000/svg">
<path d="M66.3654 55.4836H62.5047C62.1383 55.4836 61.8565 55.7649 61.8565 56.1305V60.6308H56.6995V35.5556C56.6995 35.1899 56.4177 34.9086 56.0513 34.9086H52.1906C51.8242 34.9086 51.5424 35.1899 51.5424 35.5556V40.0559H46.3853V35.5556C46.3853 35.1899 46.1035 34.9086 45.7372 34.9086H41.8764C41.5101 34.9086 41.2283 35.1899 41.2283 35.5556V40.0559H36.0712V35.5556C36.0712 34.7118 34.944 34.9086 34.4227 34.9086V29.5645C35.5922 29.2832 36.8321 29.0863 38.0439 29.0863C39.5797 29.0863 40.9888 29.6911 42.4682 29.6911C43.1164 29.6911 46.3713 29.5364 46.3713 28.566V20.1279C46.3713 19.7622 46.0895 19.481 45.7231 19.481C45.0045 19.481 43.5955 20.0857 42.3414 20.0857C40.9747 20.0857 39.3965 19.481 37.748 19.481C36.6208 19.481 35.4935 19.6357 34.4086 19.8888V19.1997C35.1694 18.834 35.6908 18.0324 35.6908 17.1886C35.6908 14.2774 31.2664 14.2634 31.2664 17.1886C31.2664 18.0324 31.7878 18.834 32.5486 19.1997V34.9086C32.0273 34.9086 30.9001 34.7118 30.9001 35.5556V40.0559H25.743V35.5556C25.743 35.1899 25.4612 34.9086 25.0949 34.9086H21.2341C20.8678 34.9086 20.586 35.1899 20.586 35.5556V40.0559H15.4712V35.5556C15.4712 35.1899 15.1894 34.9086 14.823 34.9086H10.9623C10.5959 34.9086 10.3141 35.1899 10.3141 35.5556V60.6308H5.15706V56.1305C5.15706 55.7649 4.87525 55.4836 4.5089 55.4836H0.648155C0.281806 55.4836 0 55.7649 0 56.1305V87H25.7712V73.499C25.7712 63.2888 41.2283 63.2888 41.2283 73.499V87H66.9995V56.1305C67.0136 55.7649 66.7318 55.4836 66.3654 55.4836ZM25.7712 54.8507C25.7712 55.2164 25.4894 55.4977 25.1231 55.4977H21.2623C20.896 55.4977 20.6141 55.2164 20.6141 54.8507V45.8501C20.6141 45.4844 20.896 45.2031 21.2623 45.2031H25.1231C25.4894 45.2031 25.7712 45.4844 25.7712 45.8501V54.8507ZM46.3994 54.8507C46.3994 55.2164 46.1176 55.4977 45.7513 55.4977H41.8905C41.5242 55.4977 41.2424 55.2164 41.2424 54.8507V45.8501C41.2424 45.4844 41.5242 45.2031 41.8905 45.2031H45.7513C46.1176 45.2031 46.3994 45.4844 46.3994 45.8501V54.8507Z" fill="#381557"/>
<path d="M108.538 29.75H100.25V18.5937C100.25 17.7132 99.5955 17 98.7875 17H90.0125C89.2045 17 88.55 17.7132 88.55 18.5937V23.375H84.65V18.0625C84.65 17.4754 84.2137 17 83.675 17H82.7C82.1613 17 81.725 17.4754 81.725 18.0625V23.375H77.825V18.0625C77.825 17.4754 77.3887 17 76.85 17H75.875C75.3363 17 74.9 17.4754 74.9 18.0625V23.375H72.4625C71.6545 23.375 71 24.0882 71 24.9687V48.875C71 50.0484 71.8732 51 72.95 51H108.05C109.127 51 110 50.0484 110 48.875V31.3437C110 30.4632 109.345 29.75 108.538 29.75ZM78.8 43.8281C78.8 44.2684 78.4728 44.625 78.0687 44.625H75.6312C75.2272 44.625 74.9 44.2684 74.9 43.8281V41.1718C74.9 40.7316 75.2272 40.375 75.6312 40.375H78.0687C78.4728 40.375 78.8 40.7316 78.8 41.1718V43.8281ZM78.8 37.4531C78.8 37.8934 78.4728 38.25 78.0687 38.25H75.6312C75.2272 38.25 74.9 37.8934 74.9 37.4531V34.7968C74.9 34.3566 75.2272 34 75.6312 34H78.0687C78.4728 34 78.8 34.3566 78.8 34.7968V37.4531ZM78.8 31.0781C78.8 31.5184 78.4728 31.875 78.0687 31.875H75.6312C75.2272 31.875 74.9 31.5184 74.9 31.0781V28.4218C74.9 27.9816 75.2272 27.625 75.6312 27.625H78.0687C78.4728 27.625 78.8 27.9816 78.8 28.4218V31.0781ZM86.6 43.8281C86.6 44.2684 86.2728 44.625 85.8688 44.625H83.4313C83.0272 44.625 82.7 44.2684 82.7 43.8281V41.1718C82.7 40.7316 83.0272 40.375 83.4313 40.375H85.8688C86.2728 40.375 86.6 40.7316 86.6 41.1718V43.8281ZM86.6 37.4531C86.6 37.8934 86.2728 38.25 85.8688 38.25H83.4313C83.0272 38.25 82.7 37.8934 82.7 37.4531V34.7968C82.7 34.3566 83.0272 34 83.4313 34H85.8688C86.2728 34 86.6 34.3566 86.6 34.7968V37.4531ZM86.6 31.0781C86.6 31.5184 86.2728 31.875 85.8688 31.875H83.4313C83.0272 31.875 82.7 31.5184 82.7 31.0781V28.4218C82.7 27.9816 83.0272 27.625 83.4313 27.625H85.8688C86.2728 27.625 86.6 27.9816 86.6 28.4218V31.0781ZM96.35 37.4531C96.35 37.8934 96.0228 38.25 95.6188 38.25H93.1813C92.7772 38.25 92.45 37.8934 92.45 37.4531V34.7968C92.45 34.3566 92.7772 34 93.1813 34H95.6188C96.0228 34 96.35 34.3566 96.35 34.7968V37.4531ZM96.35 31.0781C96.35 31.5184 96.0228 31.875 95.6188 31.875H93.1813C92.7772 31.875 92.45 31.5184 92.45 31.0781V28.4218C92.45 27.9816 92.7772 27.625 93.1813 27.625H95.6188C96.0228 27.625 96.35 27.9816 96.35 28.4218V31.0781ZM96.35 24.7031C96.35 25.1434 96.0228 25.5 95.6188 25.5H93.1813C92.7772 25.5 92.45 25.1434 92.45 24.7031V22.0468C92.45 21.6066 92.7772 21.25 93.1813 21.25H95.6188C96.0228 21.25 96.35 21.6066 96.35 22.0468V24.7031ZM106.1 43.8281C106.1 44.2684 105.773 44.625 105.369 44.625H102.931C102.527 44.625 102.2 44.2684 102.2 43.8281V41.1718C102.2 40.7316 102.527 40.375 102.931 40.375H105.369C105.773 40.375 106.1 40.7316 106.1 41.1718V43.8281ZM106.1 37.4531C106.1 37.8934 105.773 38.25 105.369 38.25H102.931C102.527 38.25 102.2 37.8934 102.2 37.4531V34.7968C102.2 34.3566 102.527 34 102.931 34H105.369C105.773 34 106.1 34.3566 106.1 34.7968V37.4531Z" fill="#381557"/>
<path d="M113.717 5.2256L62.8673 59.1807C59.628 62.6178 57.764 66.1263 58.7056 67.0138L59.8427 68.0854C60.7844 68.9729 64.1764 66.9044 67.4156 63.4673L118.265 9.51218C121.504 6.07513 123.369 2.56658 122.427 1.67912L121.29 0.607476C120.348 -0.27998 116.956 1.78855 113.717 5.2256Z" fill="#381557"/>
<path d="M113.717 63.4673L62.8673 9.51217C59.628 6.07513 57.764 2.56657 58.7056 1.67911L59.8427 0.607466C60.7844 -0.27999 64.1764 1.78854 67.4156 5.22559L118.265 59.1807C121.504 62.6178 123.369 66.1263 122.427 67.0138L121.29 68.0854C120.348 68.9729 116.956 66.9044 113.717 63.4673Z" fill="#381557"/>
<path d="M28.0625 87.4843C28.0625 84.4554 30.4969 82 33.5 82C36.5031 82 38.9375 84.4554 38.9375 87.4843C38.9375 90.5132 36.5031 92.9687 33.5 92.9687C30.4969 92.9687 28.0625 90.5132 28.0625 87.4843ZM47.2922 87.5889C46.3485 86.637 44.8182 86.637 43.8745 87.5889L37.3323 94.1875H29.6676L23.1255 87.5889C22.1818 86.637 20.6515 86.637 19.7078 87.5889C18.7641 88.5408 18.7641 90.0842 19.7078 91.0361L26.8542 98.2439V118.562C26.8542 119.909 27.9361 121 29.2708 121H30.4792C31.8138 121 32.8958 119.909 32.8958 118.562V110.031H34.1042V118.562C34.1042 119.909 35.1862 121 36.5208 121H37.7292C39.0639 121 40.1458 119.909 40.1458 118.562V98.2439L47.2922 91.036C48.2359 90.0841 48.2359 88.5408 47.2922 87.5889Z" fill="#381557"/>
</svg>
