<svg width="86" height="76" viewBox="0 0 86 76" fill="none" xmlns="http://www.w3.org/2000/svg">
<path d="M22.8438 12.1204H23.1902L23.3119 11.796L25.3778 6.28834C26.4799 3.35394 29.2993 1.40607 32.4516 1.40607H53.5316C56.6839 1.40607 59.5033 3.35394 60.6054 6.28834L60.6058 6.28939L62.6886 11.7972L62.8108 12.1204H63.1562H77.9375C82.1141 12.1204 85.5 15.4974 85.5 19.6561V67.8704C85.5 72.029 82.1141 75.4061 77.9375 75.4061H8.0625C3.8859 75.4061 0.5 72.029 0.5 67.8704V19.6561C0.5 15.4974 3.8859 12.1204 8.0625 12.1204H22.8438ZM63.6562 43.7632C63.6562 32.4029 54.3941 23.1739 43 23.1739C31.6059 23.1739 22.3438 32.4029 22.3438 43.7632C22.3438 55.1235 31.6059 64.3525 43 64.3525C54.3941 64.3525 63.6562 55.1235 63.6562 43.7632ZM57.2812 43.7632C57.2812 51.6049 50.8719 57.9954 43 57.9954C35.1281 57.9954 28.7188 51.6049 28.7188 43.7632C28.7188 35.9215 35.1281 29.5311 43 29.5311C50.8719 29.5311 57.2812 35.9215 57.2812 43.7632Z" fill="#6F2D88" stroke="black"/>
</svg>
