<svg width="75" height="75" viewBox="0 0 75 75" fill="none" xmlns="http://www.w3.org/2000/svg">
<path d="M64.2857 53.5714C64.2271 53.5714 64.1736 53.5882 64.115 53.5882L57.5525 42.6529C58.4012 41.1177 58.9286 39.3783 58.9286 37.5C58.9286 35.6217 58.4029 33.8823 57.5525 32.3471L64.115 21.4118C64.1736 21.4135 64.2271 21.4286 64.2857 21.4286C70.2037 21.4286 75 16.6323 75 10.7143C75 4.79632 70.2037 0 64.2857 0C60.3298 0 56.9129 2.16797 55.058 5.35714H19.942C18.0871 2.16797 14.6702 0 10.7143 0C4.79632 0 0 4.79632 0 10.7143C0 14.6702 2.16797 18.0871 5.35714 19.942V55.0564C2.16797 56.9129 0 60.3298 0 64.2857C0 70.2037 4.79632 75 10.7143 75C14.6702 75 18.0871 72.832 19.942 69.6429H55.0564C56.9129 72.832 60.3281 75 64.284 75C70.202 75 74.9983 70.2037 74.9983 64.2857C75 58.3677 70.2037 53.5714 64.2857 53.5714ZM16.0714 55.058V19.942C17.6758 19.0097 19.0097 17.6758 19.942 16.0714H54.8237L48.385 26.8025C48.3264 26.8008 48.2729 26.7857 48.2143 26.7857C42.2963 26.7857 37.5 31.582 37.5 37.5C37.5 43.418 42.2963 48.2143 48.2143 48.2143C48.2729 48.2143 48.3264 48.1975 48.385 48.1975L54.8237 58.9286H19.942C19.0102 57.3238 17.6762 55.9898 16.0714 55.058ZM45.5357 37.5C45.5357 36.0234 46.7377 34.8214 48.2143 34.8214C49.6908 34.8214 50.8929 36.0234 50.8929 37.5C50.8929 38.9766 49.6908 40.1786 48.2143 40.1786C46.7377 40.1786 45.5357 38.9766 45.5357 37.5ZM66.9643 10.7143C66.9643 12.1908 65.7623 13.3929 64.2857 13.3929C62.8092 13.3929 61.6071 12.1908 61.6071 10.7143C61.6071 9.23772 62.8092 8.03571 64.2857 8.03571C65.7623 8.03571 66.9643 9.23772 66.9643 10.7143ZM10.7143 8.03571C12.1908 8.03571 13.3929 9.23772 13.3929 10.7143C13.3929 12.1908 12.1908 13.3929 10.7143 13.3929C9.23772 13.3929 8.03571 12.1908 8.03571 10.7143C8.03571 9.23772 9.23772 8.03571 10.7143 8.03571ZM8.03571 64.2857C8.03571 62.8092 9.23772 61.6071 10.7143 61.6071C12.1908 61.6071 13.3929 62.8092 13.3929 64.2857C13.3929 65.7623 12.1908 66.9643 10.7143 66.9643C9.23772 66.9643 8.03571 65.7623 8.03571 64.2857ZM64.2857 66.9643C62.8092 66.9643 61.6071 65.7623 61.6071 64.2857C61.6071 62.8092 62.8092 61.6071 64.2857 61.6071C65.7623 61.6071 66.9643 62.8092 66.9643 64.2857C66.9643 65.7623 65.7623 66.9643 64.2857 66.9643Z" fill="#381557"/>
</svg>
